<svg width="117" height="132" viewBox="0 0 117 132" fill="none" xmlns="http://www.w3.org/2000/svg">
<g filter="url(#filter0_d_148_19)">
<path d="M31.7615 123.999C46.6439 123.999 58.7224 114.741 58.7224 103.333V82.666H31.7615C16.8792 82.666 4.80078 91.9247 4.80078 103.333C4.80078 114.741 16.8792 123.999 31.7615 123.999Z" fill="#0ACF83"/>
<path d="M4.80078 62.0006C4.80078 50.5926 16.8792 41.334 31.7615 41.334H58.7224V82.6671H31.7615C16.8792 82.6671 4.80078 73.4086 4.80078 62.0006Z" fill="#A259FF"/>
<path d="M4.80078 20.6667C4.80078 9.25866 16.8792 0 31.7615 0H58.7224V41.3333H31.7615C16.8792 41.3333 4.80078 32.0747 4.80078 20.6667Z" fill="#F24E1E"/>
<path d="M58.7227 0H85.6835C100.566 0 112.644 9.25866 112.644 20.6667C112.644 32.0747 100.566 41.3333 85.6835 41.3333H58.7227V0Z" fill="#FF7262"/>
<path d="M112.644 62.0006C112.644 73.4086 100.566 82.6671 85.6835 82.6671C70.801 82.6671 58.7227 73.4086 58.7227 62.0006C58.7227 50.5926 70.801 41.334 85.6835 41.334C100.566 41.334 112.644 50.5926 112.644 62.0006Z" fill="#1ABCFE"/>
</g>
<defs>
<filter id="filter0_d_148_19" x="0" y="0" width="118" height="132" filterUnits="userSpaceOnUse" color-interpolation-filters="sRGB">
<feFlood flood-opacity="0" result="BackgroundImageFix"/>
<feColorMatrix in="SourceAlpha" type="matrix" values="0 0 0 0 0 0 0 0 0 0 0 0 0 0 0 0 0 0 127 0" result="hardAlpha"/>
<feOffset dy="4"/>
<feGaussianBlur stdDeviation="2"/>
<feComposite in2="hardAlpha" operator="out"/>
<feColorMatrix type="matrix" values="0 0 0 0 0 0 0 0 0 0 0 0 0 0 0 0 0 0 0.25 0"/>
<feBlend mode="normal" in2="BackgroundImageFix" result="effect1_dropShadow_148_19"/>
<feBlend mode="normal" in="SourceGraphic" in2="effect1_dropShadow_148_19" result="shape"/>
</filter>
</defs>
</svg>
