<svg width="212" height="133" viewBox="0 0 212 133" fill="none" xmlns="http://www.w3.org/2000/svg">
<path d="M212 126C212 124.143 211.263 122.363 209.95 121.05C208.637 119.737 206.857 119 205 119V133C206.857 133 208.637 132.263 209.95 130.95C211.263 129.637 212 127.857 212 126V126Z" fill="#BB47BE"/>
<path d="M57.5 115.833C89.2055 115.833 115 89.8519 115 57.9167C115 25.9814 89.2055 0 57.5 0C25.7945 0 0 25.9814 0 57.9167C0 89.8519 25.7945 115.833 57.5 115.833ZM57.5 11.5833C82.8632 11.5833 103.5 32.3696 103.5 57.9167C103.5 83.4637 82.8632 104.25 57.5 104.25C32.1368 104.25 11.5 83.4637 11.5 57.9167C11.5 32.3696 32.1368 11.5833 57.5 11.5833Z" fill="#BB47BE"/>
<path d="M97.75 57.9167C97.75 47.1644 93.5094 36.8524 85.961 29.2494C78.4127 21.6463 68.175 17.375 57.5 17.375V98.4583C68.175 98.4583 78.4127 94.187 85.961 86.584C93.5094 78.9809 97.75 68.669 97.75 57.9167V57.9167Z" fill="#BB47BE"/>
</svg>
